<svg width="184" height="30" fill="none" xmlns="http://www.w3.org/2000/svg">
  <g id="Group 19">
    <path id="Fill 1" fill-rule="evenodd" clip-rule="evenodd" d="M141.006 12.9492L141.063 26.1327H137L137.057 3.93164L152.966 18.2856L152.937 4.53076H157L156.943 26.9316L141.006 12.9492Z" fill="#FFF7EB"/>
    <path id="Fill 2" fill-rule="evenodd" clip-rule="evenodd" d="M54 25.9316V4.93164H58.0305V22.3481H67V25.9316H54Z" fill="#FFF7EB"/>
    <path id="Fill 3" fill-rule="evenodd" clip-rule="evenodd" d="M76 25.9316H80V11.9316H76V25.9316Z" fill="#FFF7EB"/>
    <path id="Fill 8" fill-rule="evenodd" clip-rule="evenodd" d="M170.998 14.524C173.978 14.524 175.371 13.4946 175.371 11.4076C175.371 9.65423 174.118 8.48571 171.11 8.48571H169.661V14.524H170.998ZM177.989 25.9617L170.079 18.1141H169.661V25.9617H165.707V4.89551H170.051C174.118 4.89551 179.549 5.70278 179.549 11.3795C179.549 15.3589 177.237 17.0567 174.48 17.7524L183.448 25.9617H177.989Z" fill="#FFF7EB"/>
    <g id="Group 18">
      <path id="Fill 4" fill-rule="evenodd" clip-rule="evenodd" d="M92.2937 20.5909C93.3798 21.5927 95.3573 22.8728 97.7245 22.8728C99.8694 22.8728 101.011 21.871 101.011 20.3403C101.011 15.8879 91.6531 16.5833 91.6531 10.155C91.6531 6.39808 95.0232 4.39453 98.5324 4.39453C101.791 4.39453 104.103 6.39809 104.52 6.84375L102.599 9.79329C101.513 8.70821 99.9807 7.92883 98.5603 7.92883C97.1399 7.92883 95.7753 8.54085 95.7753 9.98829C95.7753 13.6894 105.217 12.8544 105.217 20.2844C105.217 23.5405 102.348 26.4349 97.4185 26.4349C94.3826 26.4349 91.3746 24.6257 90.2327 23.429L92.2937 20.5909Z" fill="#FFF7EB"/>
      <path id="Fill 6" fill-rule="evenodd" clip-rule="evenodd" d="M119.002 25.9614V8.48541H112.791V4.92334H129.195V8.48541H122.956V25.9614H119.002Z" fill="#FFF7EB"/>
      <g id="Group 10">
        <mask id="mask0" mask-type="alpha" maskUnits="userSpaceOnUse" x="165" y="4" width="19" height="22">
        <path id="Clip 9" fill-rule="evenodd" clip-rule="evenodd" d="M165.707 4.89551H183.448V25.9617H165.707V4.89551Z" fill="white"/>
        </mask>
        <g mask="url(#mask0)">
          <path id="Fill 8" fill-rule="evenodd" clip-rule="evenodd" d="M170.998 14.524C173.978 14.524 175.371 13.4946 175.371 11.4076C175.371 9.65423 174.118 8.48571 171.11 8.48571H169.661V14.524H170.998ZM177.989 25.9617L170.079 18.1141H169.661V25.9617H165.707V4.89551H170.051C174.118 4.89551 179.549 5.70278 179.549 11.3795C179.549 15.3589 177.237 17.0567 174.48 17.7524L183.448 25.9617H177.989Z" fill="#FFF7EB"/>
        </g>
      </g>
      <path id="Fill 11" fill-rule="evenodd" clip-rule="evenodd" d="M81.0766 6.12806C81.0766 7.74558 79.7642 9.0569 78.1454 9.0569C76.5264 9.0569 75.2141 7.74558 75.2141 6.12806C75.2141 4.51054 76.5264 3.19922 78.1454 3.19922C79.7642 3.19922 81.0766 4.51054 81.0766 6.12806Z" fill="#FFF7EB"/>
      <path id="Fill 13" fill-rule="evenodd" clip-rule="evenodd" d="M24.8425 19.7567C24.8425 23.2805 21.973 26.147 18.4463 26.147C14.9196 26.147 12.0508 23.2805 12.0508 19.7567C12.0508 16.2328 14.9196 13.3657 18.4463 13.3657C21.973 13.3657 24.8425 16.2328 24.8425 19.7567Z" fill="#FFF7EB"/>
      <path id="Fill 15" fill-rule="evenodd" clip-rule="evenodd" d="M32.1038 25.0183C33.1181 22.8053 33.5705 20.2951 33.3753 17.7866C33.1993 15.2843 32.3552 12.8035 30.9439 10.6387C30.2425 9.55283 29.3852 8.56122 28.4298 7.66543C27.46 6.78663 26.3856 6.00527 25.2171 5.37886C22.8842 4.11874 20.2012 3.45117 17.4717 3.47225C16.1108 3.4896 14.7412 3.65907 13.4098 4.0156C12.0823 4.3777 10.7772 4.88361 9.56379 5.57597C8.34606 6.25903 7.20016 7.09295 6.17833 8.0713C5.14708 9.04047 4.2415 10.1516 3.47736 11.3613C1.94425 13.7791 1.02726 16.6196 0.855921 19.548C0.670811 22.4746 1.24624 25.4794 2.5368 28.1916C0.998227 25.6137 0.106175 22.6089 0.0113868 19.5381C-0.0977934 16.4693 0.579 13.3346 2.00579 10.5328C2.71645 9.13159 3.60081 7.80774 4.65056 6.61543C5.69062 5.41407 6.89471 4.34671 8.21591 3.43258C9.5324 2.50927 10.9864 1.77489 12.5077 1.20316C14.0324 0.636877 15.6403 0.277001 17.2725 0.102952C20.5345 -0.233495 23.9287 0.254935 27.0218 1.56465C28.5696 2.21448 30.034 3.07357 31.3892 4.08849C32.7301 5.12014 33.9687 6.30589 35.0316 7.64684C37.1656 10.3176 38.6538 13.569 39.2364 17.0176C39.8397 20.4537 39.5669 24.0851 38.4013 27.4625L38.3787 27.528C37.7695 29.2932 35.8436 30.2308 34.077 29.6221C32.3105 29.0134 31.3722 27.0889 31.9813 25.3239C32.017 25.2206 32.0594 25.1158 32.1038 25.0183Z" fill="#FFF7EB"/>
    </g>
  </g>
</svg>